<svg xmlns:xlink="http://www.w3.org/1999/xlink"  width="25" height="30" viewBox="0 0 25 30" fill="none" xmlns="http://www.w3.org/2000/svg">
<g clip-path="url(#clip0_14_45270)">
<path d="M20.9848 15.9532C20.9973 14.8054 21.2992 13.6794 21.8625 12.6795C22.4258 11.6796 23.2323 10.8381 24.2071 10.2331C23.5844 9.34445 22.7631 8.61338 21.8085 8.09795C20.8539 7.58251 19.7923 7.29691 18.7081 7.26385C16.3949 7.01641 14.1546 8.64657 12.9762 8.64657C11.7978 8.64657 9.95753 7.28568 8.00812 7.32934C6.74443 7.36943 5.51268 7.73642 4.43294 8.39453C3.3532 9.05264 2.46231 9.97942 1.84712 11.0845C-0.815134 15.6985 1.17064 22.4738 3.72379 26.2072C5.004 28.0338 6.49515 30.0715 8.44456 29.9987C10.394 29.9259 11.1141 28.7616 13.3908 28.7616C15.6676 28.7616 16.3513 29.9769 18.3371 29.9332C20.3229 29.8896 21.6758 28.092 22.9124 26.2508C23.8321 24.953 24.537 23.5155 25 21.9935C23.8104 21.4945 22.7946 20.6549 22.0802 19.5803C21.3659 18.5056 20.9848 17.2438 20.9848 15.9532Z" fill="black"/>
<path d="M17.2102 4.81042C18.3339 3.47112 18.8853 1.74298 18.745 0C17.0388 0.180508 15.4628 0.996174 14.3297 2.28513C13.7753 2.91748 13.351 3.65314 13.0814 4.44991C12.8118 5.24668 12.7021 6.08888 12.7586 6.92817C13.6129 6.93825 14.4582 6.75266 15.2298 6.3856C16.0013 6.01853 16.6788 5.47973 17.2102 4.81042Z" fill="black"/>
</g>
<defs>
<clipPath id="clip0_14_45270">
<rect width="25" height="30" fill="white"/>
</clipPath>
</defs>
</svg>
