<svg xmlns:xlink="http://www.w3.org/1999/xlink"  class="absolute top-96 z-0 px-4 bglogo max-w-screen-xl" viewBox="0 0 929 309" fill="none" xmlns="http://www.w3.org/2000/svg"><g opacity="0.30" fill="none"><path d="M32.2083 30.5707L46.9143 9.4309H124.094V300.237H44.6601V75.9621L22.7622 75.7475L0.864258 75.4256L9.12966 63.6216C12.6161 58.6773 19.3486 49.0184 25.95 39.5477L25.9649 39.5263L32.2083 30.5707Z" fill="#FFFFFF" stroke="#FFFFFF"></path><path fill-rule="evenodd" clip-rule="evenodd" d="M313.554 1.91932C340.711 5.88973 357.672 13.4014 374.524 28.7464C386.976 40.1211 397.818 58.3636 402.112 75.211C410.377 107.725 405.761 145.069 389.66 176.403C382.253 190.782 380.321 193.894 340.604 251.626L307.22 300.237H262.351C237.662 300.237 217.482 300.022 217.482 299.593C217.482 299.164 265.786 229.52 281.673 206.986L286.503 200.225L281.78 200.976C273.515 202.479 251.832 201.835 243.244 199.903C230.256 197.006 216.623 189.816 207.177 180.91C190.002 164.599 180.663 144.747 177.658 118.349C174.437 90.0195 182.488 61.5828 199.663 39.7992C216.945 18.0156 240.131 5.78242 272.227 1.59743C288.221 -0.54875 297.56 -0.441492 313.554 1.91932ZM254.945 97.8528C257.95 80.7908 267.933 68.343 282.532 63.7288C289.294 61.5826 301.531 62.1191 307.864 65.0164C330.943 75.2108 338.887 111.159 322.892 133.908C310.333 152.044 281.351 153.653 266.43 137.02C256.769 126.29 252.583 111.803 254.945 97.8528Z" fill="#FFFFFF" stroke="#FFFFFF"></path><path d="M645.565 41.3015L645.243 73.2794L591.464 73.6013L537.578 73.816L535.216 87.0149C534.344 91.8846 533.373 97.0497 532.704 100.609L532.169 103.461L531.996 104.399C531.46 106.76 531.138 108.798 531.352 108.906C531.46 109.013 534.894 108.584 538.974 107.94C549.815 106.223 579.442 107.618 591.571 110.301C617.978 116.203 639.232 134.231 649.859 159.77C659.197 182.305 658.875 214.712 649 238.32C636.441 268.581 608.102 293.798 577.08 302.383C545.844 310.968 504.302 310.324 475.105 300.666C465.658 297.554 442.258 286.394 439.037 283.497L436.676 281.458L439.789 248.729L440.048 245.833C441.546 229.064 442.794 215.083 442.794 214.068C442.902 212.566 443.975 212.244 449.664 212.244H456.427L462.76 218.79C481.438 237.676 501.404 246.582 525.234 246.582C540.262 246.582 552.713 242.505 563.448 234.135C573.753 226.087 579.227 213.317 579.334 197.221C579.334 186.597 578.798 183.592 575.47 176.832C562.589 151.078 510.635 142.923 474.783 160.95C469.201 163.74 467.591 163.955 460.291 163.74L460.253 163.739C452.133 163.418 452.026 163.414 452.348 160.736C452.777 158.268 481.867 17.2644 483.155 11.7917L483.692 9.4309H645.78L645.565 41.3015Z" fill="#FFFFFF" stroke="#FFFFFF"></path><path fill-rule="evenodd" clip-rule="evenodd" d="M845.866 12.6502C888.696 24.2394 919.396 58.1489 926.481 101.823C928.842 116.847 928.843 202.264 926.374 216.643C918.86 260.533 887.945 294.442 845.652 305.173C795.952 317.835 744.964 294.335 721.778 248.192C716.733 238.212 712.762 225.228 711.259 214.175C710.4 208.166 710.185 187.67 710.4 153.117L710.403 152.777C710.424 150.219 710.444 147.787 710.463 145.475C710.768 109.262 710.916 102.299 712.403 95.6352C712.736 94.1428 713.136 92.6654 713.62 90.878C718.665 72.2063 727.36 56.8612 740.778 42.8038C756.343 26.6002 774.376 16.5133 797.133 11.4698C809.585 8.67977 833.522 9.21629 845.866 12.6502ZM812.161 73.9238C800.568 76.1773 788.867 85.4057 783.93 96.1366C781.575 101.058 781.568 102.246 781.249 157.138L781.246 157.624C780.924 212.781 781.031 214.283 783.178 220.185C785.969 227.482 793.913 236.496 801.104 240.359C820.534 250.875 845.33 242.505 854.883 222.117L857.781 216V102.253L854.883 96.3512C848.765 84.0108 838.782 76.2846 825.686 73.9238L825.363 73.8652C821.941 73.2427 820.279 72.9406 818.621 72.9587C817.057 72.9759 815.496 73.2781 812.463 73.8652L812.161 73.9238Z" fill="#FFFFFF" stroke="#FFFFFF"></path></g></svg>